<?xml version="1.0" standalone="no"?>
<!DOCTYPE svg PUBLIC "-//W3C//DTD SVG 20010904//EN"
 "http://www.w3.org/TR/2001/REC-SVG-20010904/DTD/svg10.dtd">
<svg version="1.0" xmlns="http://www.w3.org/2000/svg"
 width="400.000000pt" height="400.000000pt" viewBox="0 0 400.000000 400.000000"
 preserveAspectRatio="xMidYMid meet">

<g transform="translate(0.000000,400.000000) scale(0.100000,-0.100000)"
fill="#000000" stroke="none">
<path d="M1810 3723 c-104 -17 -272 -58 -358 -88 -138 -48 -306 -129 -353
-171 -8 -8 -21 -14 -27 -14 -6 0 -17 -6 -24 -12 -7 -7 -40 -33 -73 -57 -56
-42 -94 -75 -184 -161 -59 -56 -182 -208 -226 -279 -101 -161 -160 -286 -200
-426 -8 -27 -21 -72 -29 -98 l-15 -48 77 6 c169 13 189 17 241 46 29 17 55 38
59 47 4 9 9 -58 12 -151 5 -169 19 -223 31 -116 6 59 62 246 85 289 8 14 18
36 24 50 5 14 23 48 40 75 16 28 35 61 42 75 15 28 12 24 108 137 120 140 324
296 435 333 19 6 37 15 40 20 3 5 50 22 105 39 279 87 564 87 820 1 81 -28
241 -103 305 -145 57 -37 175 -136 225 -190 78 -83 93 -101 130 -156 l39 -56
118 -6 c119 -6 342 -45 383 -67 12 -6 23 -10 26 -8 6 7 -46 128 -93 216 -39
73 -137 225 -168 259 -5 6 -30 35 -55 64 -53 62 -157 166 -195 194 -14 11 -40
32 -58 46 -36 28 -93 69 -119 84 -9 6 -43 25 -75 44 -163 96 -344 163 -554
206 -112 22 -149 25 -320 24 -107 -1 -205 -4 -219 -6z m268 -145 c19 -19 14
-29 -13 -22 -34 8 -33 -13 1 -26 21 -8 25 -15 22 -42 -3 -30 -6 -33 -37 -33
-19 0 -36 6 -39 13 -3 9 3 11 21 7 39 -10 44 14 8 42 -35 28 -37 35 -15 57 19
19 36 20 52 4z m-198 -56 c-10 -26 -21 -55 -24 -64 -9 -28 -20 -21 -46 25 -12
23 -30 50 -38 60 -14 15 -13 17 1 17 9 0 23 -13 31 -28 8 -16 21 -34 29 -41
13 -10 16 -7 22 21 10 44 24 70 35 63 5 -3 0 -27 -10 -53z m91 -3 c30 -60 31
-96 2 -51 -21 31 -61 29 -69 -3 -3 -14 -10 -25 -15 -25 -12 0 -11 6 2 49 23
72 32 91 40 91 5 0 23 -27 40 -61z m244 49 c14 -6 25 -15 25 -20 0 -10 -3 -10
-34 2 -56 21 -100 -25 -66 -70 14 -19 23 -22 48 -17 33 7 53 -7 26 -17 -32
-12 -66 -5 -89 19 -33 32 -32 68 3 94 31 24 51 26 87 9z m108 -20 c22 -11 22
-44 0 -57 -15 -8 -15 -13 -5 -36 7 -15 10 -30 7 -34 -8 -7 -35 28 -35 46 0 22
-30 15 -40 -9 -8 -20 -9 -19 -9 13 -1 20 2 51 5 68 6 27 9 30 33 24 14 -3 34
-10 44 -15z m-573 -7 c0 -4 14 -25 30 -46 37 -46 42 -80 7 -47 -27 25 -67 20
-67 -9 0 -10 -4 -21 -10 -24 -12 -8 -12 -6 1 72 7 42 16 63 25 63 8 0 14 -4
14 -9z m-86 -18 c16 -59 17 -101 1 -117 -9 -9 -22 -16 -29 -16 -21 0 -49 26
-42 39 6 9 11 8 21 -5 8 -11 19 -15 30 -10 18 6 18 42 -1 104 -4 13 -2 22 4
22 6 0 13 -8 16 -17z m720 -20 c-12 -67 -20 -87 -33 -91 -14 -5 -14 0 10 91 5
20 14 37 20 37 6 0 7 -14 3 -37z m89 9 c36 -32 14 -72 -40 -72 -22 0 -33 -5
-33 -14 0 -8 -5 -18 -11 -22 -13 -8 -6 44 12 104 9 27 14 32 32 26 12 -3 30
-13 40 -22z m107 -28 c43 -17 56 -40 17 -30 -20 5 -26 -1 -40 -30 -9 -19 -17
-41 -17 -49 0 -8 -4 -15 -10 -15 -13 0 -13 6 5 64 8 27 14 50 13 51 -2 1 -12
7 -23 13 -32 18 7 15 55 -4z m-1251 -111 c5 -16 17 -37 26 -47 14 -19 17 -19
50 -3 19 9 35 12 35 7 0 -5 -18 -18 -40 -29 -44 -21 -48 -20 -81 46 -21 41
-23 53 -10 53 5 0 14 -12 20 -27z m-16 -35 c15 -29 27 -56 27 -60 0 -13 -20
-9 -20 5 0 6 -9 23 -20 37 l-19 25 3 -53 c2 -28 -1 -52 -6 -52 -5 0 -25 7 -45
15 -47 20 -48 19 -24 -11 22 -28 27 -44 13 -44 -9 0 -72 92 -72 104 0 12 26 5
73 -19 l47 -25 0 65 c0 36 4 65 8 65 4 0 20 -24 35 -52z m1612 -43 c25 -24 32
-45 16 -45 -5 0 -16 12 -25 26 -14 21 -24 25 -54 22 -35 -3 -37 -5 -37 -38 0
-30 5 -37 32 -50 32 -15 43 -30 23 -30 -29 0 -69 32 -75 60 -16 72 66 110 120
55z m-1800 -31 c-16 -12 -15 -16 14 -58 50 -73 36 -79 -22 -9 -30 36 -37 40
-47 28 -14 -17 -30 -20 -30 -6 0 15 95 81 99 69 2 -6 -4 -17 -14 -24z m1883
-26 c7 -7 12 -21 12 -32 -1 -19 -1 -19 -11 -3 -11 18 -39 24 -39 7 0 -6 6 -19
12 -30 26 -41 -26 -77 -63 -44 -20 18 -26 44 -9 44 6 0 10 -7 10 -15 0 -9 9
-15 25 -15 29 0 28 0 15 36 -19 49 14 86 48 52z m-1898 -130 c0 -16 -19 -8
-34 14 l-16 23 -27 -27 c-26 -27 -26 -28 -8 -48 36 -40 7 -30 -41 14 -27 25
-45 48 -41 52 4 4 15 0 25 -9 25 -23 39 -21 58 8 15 24 15 27 0 44 -9 9 -13
21 -9 25 8 7 93 -80 93 -96z m1984 47 c8 -9 12 -23 9 -32 -6 -14 -8 -14 -16 5
-6 12 -17 22 -25 22 -10 0 -12 -5 -7 -17 5 -10 8 -29 9 -43 1 -21 -4 -25 -31
-28 -23 -2 -35 3 -47 20 -11 15 -12 24 -5 27 6 2 17 -6 25 -18 8 -12 19 -21
23 -21 16 0 21 30 9 49 -25 40 22 70 56 36z"/>
<path d="M1926 3533 c-11 -11 -6 -23 9 -23 8 0 15 4 15 9 0 13 -16 22 -24 14z"/>
<path d="M2266 3534 c-10 -27 -7 -34 18 -34 33 0 44 20 21 37 -24 17 -32 17
-39 -3z"/>
<path d="M1735 3500 c-3 -5 1 -10 10 -10 9 0 13 5 10 10 -3 6 -8 10 -10 10 -2
0 -7 -4 -10 -10z"/>
<path d="M2421 3488 c-10 -28 5 -41 31 -27 24 13 23 26 -2 39 -17 9 -22 7 -29
-12z"/>
<path d="M1911 3209 c-383 -27 -763 -271 -960 -618 -64 -113 -128 -293 -147
-412 l-7 -41 134 7 c74 3 177 15 229 25 52 10 113 21 135 25 34 6 132 32 340
91 28 8 122 39 210 70 570 197 739 245 990 284 77 11 157 24 178 28 l38 7 -33
45 c-18 25 -37 50 -43 56 -5 6 -24 26 -40 45 -54 61 -223 199 -243 199 -5 0
-15 6 -21 14 -11 13 -37 26 -161 84 -89 42 -247 82 -343 88 -50 3 -103 6 -117
8 -14 1 -76 -1 -139 -5z m815 -435 c6 -22 19 -55 28 -72 9 -17 16 -33 16 -37
0 -3 -313 -5 -697 -5 l-696 0 6 -103 c4 -56 10 -141 13 -189 l7 -86 -79 5
c-43 3 -80 6 -81 7 -1 0 -9 82 -18 181 -9 99 -20 181 -25 183 -5 2 18 22 53
45 41 28 68 55 80 80 l19 37 681 -2 681 -3 12 -41z"/>
<path d="M1345 2379 c-4 -6 -14 -8 -22 -5 -13 5 -14 1 -10 -24 5 -22 3 -30 -8
-30 -8 0 -15 -5 -15 -11 0 -24 35 -2 41 26 4 17 7 24 8 18 0 -7 8 -13 16 -13
8 0 15 -5 15 -11 0 -6 -7 -9 -15 -5 -9 3 -15 0 -15 -9 0 -8 9 -15 20 -15 24 0
27 32 5 50 -20 16 -19 34 1 26 8 -3 12 -2 9 4 -8 13 -22 13 -30 -1z"/>
<path d="M2781 2306 c-19 -7 -37 -21 -41 -32 -4 -10 -13 -75 -19 -144 -7 -72
-18 -134 -27 -147 -18 -29 -69 -55 -97 -51 -20 3 -22 8 -21 73 1 80 23 135 54
135 15 0 20 -7 20 -26 0 -20 4 -25 16 -20 9 3 18 6 20 6 8 0 4 42 -6 61 -14
25 -42 24 -94 -2 -61 -30 -104 -109 -105 -195 -1 -52 29 -94 67 -94 33 0 128
43 135 61 3 8 6 4 6 -9 1 -21 4 -22 39 -16 20 3 40 9 43 13 3 3 11 45 18 94 6
48 16 99 21 112 20 52 66 39 55 -16 -13 -59 -9 -150 5 -159 26 -16 86 -11 112
10 19 14 28 16 36 8 7 -7 34 -12 60 -12 76 0 123 47 137 137 10 64 30 45 30
-29 0 -57 3 -68 24 -85 31 -25 117 -26 147 -1 28 22 54 74 54 107 0 17 5 25
18 25 15 0 17 -10 17 -72 l0 -73 38 -19 c31 -15 44 -16 63 -7 30 13 31 37 3
44 -20 5 -21 10 -14 84 4 43 13 114 21 158 8 44 14 81 14 83 0 1 -20 2 -44 2
l-44 0 -12 -72 c-15 -95 -16 -98 -40 -98 -13 0 -20 7 -20 19 0 10 -14 33 -30
51 -28 30 -34 32 -76 27 -39 -4 -53 -12 -85 -47 -40 -43 -69 -48 -69 -13 0 65
-83 85 -152 37 -41 -29 -71 -98 -71 -166 0 -44 -26 -68 -47 -43 -9 11 -9 27
-1 65 19 90 15 117 -20 135 -28 15 -34 15 -70 1 l-38 -16 6 65 c3 36 4 65 2
64 -2 0 -19 -6 -38 -13z m372 -132 c-2 -16 0 -36 4 -44 19 -46 -12 -120 -51
-120 -42 0 -47 50 -15 132 11 29 26 56 32 60 21 13 32 2 30 -28z m262 16 c4
-6 1 -18 -6 -26 -10 -12 -9 -20 1 -40 21 -38 -6 -108 -43 -112 -22 -3 -28 2
-33 24 -8 32 10 129 27 150 13 16 45 18 54 4z"/>
<path d="M2321 2239 c-65 -26 -100 -98 -76 -155 8 -19 18 -34 23 -34 19 0 100
-81 106 -105 9 -36 -17 -81 -55 -94 -67 -23 -95 36 -38 83 50 42 20 61 -46 29
-27 -13 -38 -26 -45 -55 -24 -88 22 -129 120 -107 88 20 160 94 160 167 0 40
-37 91 -88 121 -80 48 -91 96 -29 131 24 13 28 13 44 -3 15 -14 16 -22 6 -47
-10 -26 -9 -30 6 -30 40 0 68 69 39 98 -14 14 -93 15 -127 1z"/>
<path d="M1918 1988 c-21 -6 -38 -14 -38 -19 0 -5 -18 -9 -40 -9 -76 0 -150
-105 -150 -214 0 -48 -22 -78 -42 -58 -9 9 -9 30 0 84 14 92 3 121 -47 126
-20 2 -40 -3 -51 -13 -11 -10 -40 -18 -65 -20 -25 -2 -48 -5 -50 -7 -2 -2 -8
-49 -14 -104 -12 -119 -16 -130 -42 -137 -30 -8 -34 16 -21 108 19 128 20 124
-33 112 -39 -9 -45 -14 -46 -36 -1 -71 -18 -182 -29 -196 -7 -8 -22 -15 -33
-15 -18 0 -19 4 -13 58 32 275 33 283 17 277 -9 -4 -28 -9 -43 -12 -29 -6 -29
-4 -48 -191 -14 -130 -22 -152 -55 -152 -30 0 -30 3 -11 125 8 50 17 118 21
153 l7 63 -28 -6 c-64 -15 -62 -12 -69 -83 -4 -37 -10 -78 -14 -92 -10 -33
-37 -38 -46 -8 -19 61 -73 75 -145 38 -68 -34 -108 -146 -76 -208 22 -43 50
-55 109 -49 42 4 55 10 78 38 17 21 30 52 34 82 5 35 11 47 24 47 15 0 17 -8
13 -59 -6 -78 7 -101 57 -101 24 0 48 8 65 21 26 20 28 20 46 4 23 -20 58 -15
100 16 23 17 31 19 49 10 16 -9 32 -9 64 0 23 7 51 13 62 14 67 5 61 -3 79
112 16 106 37 158 59 150 8 -3 11 -30 9 -87 -5 -120 -1 -130 50 -130 30 0 49
7 67 24 21 19 34 22 68 18 l43 -4 -20 -25 c-22 -29 -26 -73 -8 -91 37 -37 130
9 147 73 18 66 60 387 50 384 -2 -1 -21 -6 -41 -11z m-54 -66 c10 -17 -14
-165 -30 -183 -51 -57 -78 25 -42 126 19 52 56 82 72 57z m-977 -188 c3 -9 0
-20 -8 -24 -11 -7 -11 -13 0 -34 27 -49 -11 -133 -56 -124 -35 6 -30 124 8
172 23 29 47 34 56 10z m953 -49 c-7 -8 -17 -15 -22 -15 -11 0 14 29 26 30 5
0 3 -7 -4 -15z m0 -43 c0 -24 -28 -62 -46 -62 -20 0 -18 17 7 51 23 33 39 37
39 11z"/>
<path d="M1306 1945 c-31 -31 -13 -75 30 -75 29 0 46 23 42 57 -2 22 -9 29
-29 31 -15 2 -34 -4 -43 -13z"/>
<path d="M425 1905 c-21 -8 -47 -24 -57 -37 -33 -44 -15 -118 29 -118 11 0 14
6 10 21 -18 69 40 129 126 129 80 0 117 -53 82 -119 -8 -17 -25 -31 -40 -33
l-25 -5 6 63 7 64 -41 0 c-22 0 -43 -4 -46 -9 -3 -4 -12 -62 -20 -127 -9 -65
-18 -140 -22 -166 l-7 -48 41 0 c46 0 45 -3 63 113 6 43 16 80 21 83 4 3 18 2
29 -1 21 -7 21 -11 15 -106 l-7 -99 28 -11 c15 -5 38 -8 50 -4 20 5 21 8 11
24 -9 15 -9 34 0 84 16 84 16 83 -9 108 l-21 21 21 22 c29 31 29 95 -1 123
-45 42 -165 56 -243 28z"/>
<path d="M3065 1653 c-159 -19 -454 -82 -578 -122 -17 -6 -59 -18 -92 -26 -33
-9 -91 -25 -130 -35 -179 -50 -221 -61 -385 -103 -325 -82 -629 -137 -764
-137 -36 0 -66 -4 -66 -10 0 -12 218 -230 230 -230 5 0 21 -11 37 -24 81 -67
274 -152 434 -191 101 -25 133 -28 279 -28 147 0 177 3 270 27 294 76 497 201
679 419 77 93 97 123 127 187 9 19 21 41 27 48 20 25 85 197 87 230 0 3 -119
0 -155 -5z"/>
<path d="M3250 1506 c0 -24 -87 -186 -151 -281 -94 -139 -286 -313 -424 -385
-16 -9 -39 -21 -50 -27 -94 -53 -266 -109 -396 -128 -339 -49 -653 23 -940
217 -94 63 -233 194 -287 269 l-33 46 -177 7 c-154 5 -263 19 -334 42 -32 10
-20 -16 87 -206 120 -210 421 -495 640 -605 22 -12 49 -26 60 -32 42 -24 106
-53 117 -53 6 0 36 -11 67 -24 279 -118 751 -138 1062 -47 79 23 194 64 244
86 17 8 41 18 55 24 47 20 238 136 284 173 11 10 41 34 66 54 73 58 154 139
227 227 70 84 76 92 139 186 42 63 127 221 119 221 -3 0 8 27 25 60 16 33 30
64 30 70 0 8 -28 10 -92 5 -129 -9 -225 -32 -272 -66 -22 -16 -43 -29 -47 -29
-3 0 -6 45 -6 100 0 56 -3 104 -7 107 -3 4 -6 -2 -6 -11z m-2190 -651 c16 -18
21 -28 13 -36 -7 -7 -15 -2 -27 16 -23 34 -31 27 -12 -10 8 -16 13 -32 10 -37
-8 -13 -41 -9 -58 8 -18 17 -21 44 -6 44 6 0 10 -6 10 -14 0 -16 24 -38 33
-30 4 4 -3 20 -14 35 -35 50 8 70 51 24z m2027 3 c13 -12 23 -28 23 -36 0 -12
-6 -10 -23 6 -43 40 -81 23 -47 -21 30 -38 24 -54 -9 -23 -18 17 -36 26 -45
23 -22 -9 -20 -30 4 -52 11 -10 17 -22 14 -26 -8 -13 -23 -1 -44 33 -17 28
-17 31 -2 49 9 10 24 19 34 19 10 0 18 4 18 9 0 13 29 41 43 41 6 0 21 -10 34
-22z m-1949 -64 c12 -8 22 -23 22 -32 0 -14 -4 -12 -19 7 -22 28 -55 25 -59
-6 -3 -17 3 -24 22 -29 14 -3 26 -12 26 -20 0 -19 -13 -17 -44 7 -30 24 -34
63 -8 78 24 14 34 13 60 -5z m69 -15 c-4 -16 1 -28 19 -41 29 -23 31 -48 4
-79 -22 -27 -25 -22 -10 15 21 55 -18 76 -56 29 -13 -16 -23 -22 -27 -16 -4 6
4 25 18 41 14 16 25 34 25 39 0 9 20 33 28 33 2 0 2 -10 -1 -21z m1741 -21
c31 -31 -3 -88 -54 -88 -23 0 -34 17 -34 55 0 38 60 61 88 33z m-135 -63 c-35
-15 -44 -42 -17 -52 8 -3 26 0 40 7 30 17 41 8 18 -14 -10 -11 -28 -16 -48
-14 -26 2 -32 8 -34 31 -4 36 13 57 47 57 25 -1 25 -1 -6 -15z m-1471 -28 c24
-35 7 -67 -35 -67 -40 0 -57 15 -57 50 0 34 6 40 46 40 22 0 36 -7 46 -23z
m96 -33 c17 -12 22 -24 20 -47 -3 -29 -7 -32 -40 -35 -45 -4 -74 28 -56 62 21
39 41 45 76 20z m72 1 c0 -9 -7 -32 -15 -52 -9 -20 -13 -43 -11 -50 3 -7 1
-15 -5 -18 -19 -12 -21 26 -4 80 17 52 35 73 35 40z m1210 5 c0 -5 -11 -10
-24 -10 -14 0 -28 -4 -31 -10 -4 -6 8 -10 29 -10 29 0 36 -4 36 -20 0 -25 -41
-46 -67 -34 -15 7 -14 8 9 11 14 3 32 10 38 18 9 11 3 13 -34 12 -35 -2 -46
-6 -46 -18 0 -11 -12 -19 -36 -24 -25 -4 -33 -10 -26 -17 7 -7 17 -6 32 2 28
15 41 3 16 -16 -26 -18 -51 -18 -70 2 -11 10 -16 12 -16 3 0 -22 -32 -49 -58
-49 -19 0 -23 -4 -19 -20 3 -11 1 -22 -3 -25 -10 -6 -30 57 -30 91 0 39 46 57
90 34 15 -8 19 -5 24 15 7 26 43 42 72 31 10 -4 23 3 36 19 19 25 78 36 78 15z
m55 -40 c3 -5 -1 -10 -9 -10 -9 0 -16 5 -16 10 0 6 4 10 9 10 6 0 13 -4 16
-10z m-1188 -27 c6 4 19 0 29 -9 18 -14 18 -15 -4 -9 -27 8 -52 -10 -52 -36 0
-11 -6 -19 -14 -19 -13 0 -13 7 1 46 10 29 18 42 23 34 4 -7 12 -10 17 -7z
m182 -52 c-5 -24 -7 -52 -4 -62 6 -19 -9 -27 -19 -10 -9 13 15 134 25 124 4
-4 4 -28 -2 -52z m45 -21 c1 -52 -1 -60 -18 -60 -12 0 -16 5 -12 15 3 8 8 37
12 65 9 66 17 56 18 -20z m-87 31 c28 -37 2 -74 -47 -69 -28 2 -37 9 -45 32
-8 24 -6 31 14 47 26 21 57 17 78 -10z m143 15 c0 -3 -4 -8 -10 -11 -5 -3 -10
-1 -10 4 0 6 5 11 10 11 6 0 10 -2 10 -4z m522 -13 c22 -20 23 -41 1 -65 -18
-20 -45 -23 -74 -8 -23 13 -24 38 -3 68 18 26 50 28 76 5z m-872 -13 c0 -5 -4
-10 -10 -10 -5 0 -10 5 -10 10 0 6 5 10 10 10 6 0 10 -4 10 -10z m765 1 c3 -5
-7 -11 -21 -13 -34 -4 -56 -34 -34 -48 8 -6 25 -8 38 -5 28 7 29 -11 2 -20
-27 -9 -70 19 -70 45 0 33 69 66 85 41z m-434 -84 c-13 -13 -15 41 -3 70 5 13
8 8 10 -21 2 -21 -1 -43 -7 -49z m107 66 c18 -11 22 -22 20 -46 -2 -18 -7 -30
-13 -27 -5 3 -9 9 -7 14 2 6 1 20 -3 34 -9 37 -49 26 -55 -16 -5 -32 -26 -47
-24 -17 4 74 3 72 32 73 15 0 37 -6 50 -15z m223 7 c5 0 9 -4 9 -10 0 -5 -13
-7 -30 -3 -18 3 -30 1 -30 -5 0 -6 14 -13 30 -17 20 -4 30 -13 30 -25 0 -32
-58 -42 -81 -13 -13 15 -11 16 18 10 18 -3 35 -2 38 3 3 6 -4 10 -17 10 -24 0
-48 16 -48 32 0 12 42 28 58 22 8 -2 18 -4 23 -4z m-105 -8 c20 -13 25 -84 7
-104 -27 -30 -93 -19 -93 16 0 6 5 5 12 -2 16 -16 53 -15 67 1 8 11 5 13 -19
9 -17 -2 -37 1 -45 8 -18 15 -20 66 -2 73 19 8 61 8 73 -1z"/>
<path d="M2886 737 c-37 -27 4 -63 42 -38 18 11 12 45 -8 49 -9 1 -24 -4 -34
-11z"/>
<path d="M1283 673 c-18 -6 -16 -38 2 -53 20 -16 45 -6 45 19 0 22 -27 41 -47
34z"/>
<path d="M1380 596 c0 -27 34 -46 52 -28 18 18 4 47 -25 50 -23 3 -27 0 -27
-22z"/>
<path d="M2560 575 c-16 -19 -3 -19 30 0 24 13 24 14 4 15 -12 0 -27 -7 -34
-15z"/>
<path d="M2458 552 c-11 -2 -18 -13 -18 -28 0 -22 4 -25 28 -22 19 2 28 9 30
24 3 23 -12 33 -40 26z"/>
<path d="M1662 528 c-16 -16 -15 -23 4 -42 12 -12 20 -13 35 -6 23 13 24 24 3
44 -19 19 -26 20 -42 4z"/>
<path d="M2330 511 c-7 -15 -6 -23 5 -35 28 -27 69 10 44 40 -16 20 -37 17
-49 -5z"/>
<path d="M2022 491 c-23 -14 -10 -46 18 -46 16 0 26 6 28 19 3 16 -12 36 -28
36 -3 0 -11 -4 -18 -9z"/>
</g>
</svg>
