<svg width="34" height="34" viewBox="0 0 34 34" fill="none" xmlns="http://www.w3.org/2000/svg">
<g clip-path="url(#clip0_72_17)">
<path d="M33.8394 7.07025C32.6686 7.58908 31.4107 7.93964 30.0884 8.09809C31.4528 7.28169 32.4736 5.99678 32.9602 4.4831C31.6784 5.24451 30.2754 5.78045 28.8124 6.06764C27.8285 5.01717 26.5254 4.3209 25.1053 4.08693C23.6852 3.85296 22.2276 4.09439 20.9587 4.77372C19.6899 5.45305 18.6808 6.53229 18.0882 7.84387C17.4956 9.15545 17.3526 10.626 17.6813 12.0272C15.0839 11.8968 12.543 11.2217 10.2234 10.0457C7.90377 8.86969 5.85736 7.21911 4.21695 5.20105C3.65605 6.1686 3.33354 7.2904 3.33354 8.48511C3.33291 9.56063 3.59777 10.6197 4.1046 11.5683C4.61144 12.5169 5.34459 13.3257 6.23899 13.923C5.20172 13.89 4.18733 13.6097 3.28025 13.1055V13.1897C3.28015 14.6981 3.80193 16.1601 4.75708 17.3277C5.71222 18.4952 7.04188 19.2963 8.52045 19.5951C7.55821 19.8555 6.54936 19.8939 5.57012 19.7073C5.98729 21.0052 6.79989 22.1402 7.89416 22.9534C8.98844 23.7666 10.3096 24.2172 11.6727 24.2422C9.35876 26.0587 6.50106 27.044 3.5593 27.0396C3.0382 27.0398 2.51754 27.0094 2 26.9485C4.98605 28.8684 8.46203 29.8874 12.012 29.8834C24.0293 29.8834 30.5988 19.9303 30.5988 11.298C30.5988 11.0176 30.5918 10.7343 30.5792 10.4539C31.8571 9.52975 32.9601 8.38541 33.8366 7.07445L33.8394 7.07025Z" fill="#F8F8F8"/>
</g>
<defs>
<clipPath id="clip0_72_17">
<rect width="33.6539" height="33.6539" fill="white" transform="translate(0.307861)"/>
</clipPath>
</defs>
</svg>
